<?xml version="1.0" encoding="utf-8"?>
<svg xmlns="http://www.w3.org/2000/svg" fill="none" height="40" width="152">
  <g clip-path="url(#a)" fill="#262D3D">
    <path d="m88.47 11.16 8.74-3.26-8.74-3.35V0l14.98 6.05v3.72l-14.98 6.05v-4.66ZM5.77 40C2.61 40 0 38.42 0 34.88v-.19c0-4.28 3.72-5.77 8.28-5.77h2.14v-.84c0-1.77-.74-2.79-2.6-2.79-1.67 0-2.51.93-2.6 2.23H.56c.37-3.91 3.44-5.77 7.53-5.77s7.26 1.77 7.26 6.14v11.72h-4.74v-2.05c-.93 1.3-2.51 2.42-4.84 2.42V40Zm4.65-6.14v-1.67H8.47c-2.42 0-3.63.65-3.63 2.23v.19c0 1.21.74 2.05 2.42 2.05 1.67-.09 3.16-1.02 3.16-2.79v-.01Zm16 6.14c-4.84 0-8.37-2.98-8.37-8.93v-.28c0-5.95 3.72-9.12 8.37-9.12 4 0 7.26 2.05 7.63 6.6H29.4c-.28-1.67-1.21-2.79-2.88-2.79-2.05 0-3.53 1.67-3.53 5.12v.56c0 3.53 1.3 5.12 3.53 5.12 1.67 0 2.88-1.21 3.16-3.16h4.47c-.28 4.09-2.98 6.88-7.72 6.88h-.01Zm18.23 0c-4.84 0-8.37-2.98-8.37-8.93v-.28c0-5.95 3.72-9.12 8.37-9.12 4 0 7.26 2.05 7.63 6.6h-4.65c-.28-1.67-1.21-2.79-2.88-2.79-2.05 0-3.53 1.67-3.53 5.12v.56c0 3.53 1.3 5.12 3.53 5.12 1.67 0 2.88-1.21 3.16-3.16h4.47C52.1 37.21 49.4 40 44.66 40h-.01Zm18.33 0c-5.02 0-8.47-2.98-8.47-8.84v-.37c0-5.86 3.63-9.12 8.37-9.12 4.37 0 8 2.42 8 8.28v2.14H59.44c.19 3.16 1.58 4.37 3.63 4.37 1.86 0 2.88-1.02 3.26-2.23h4.56c-.56 3.26-3.35 5.77-7.91 5.77Zm-3.44-11.16h6.51c-.09-2.6-1.3-3.72-3.26-3.72-1.49.09-2.88.93-3.26 3.72h.01Zm14.33-6.7h4.93v2.6c.84-1.67 2.6-2.98 5.3-2.98 3.16 0 5.3 1.95 5.3 6.14v11.72h-4.93V28.64c0-2.05-.84-2.98-2.6-2.98-1.67 0-3.07 1.02-3.07 3.26v10.7h-4.93V22.13v.01Zm24.56-5.3v5.3h3.35v3.63h-3.35v8.28c0 1.3.56 1.95 1.77 1.95.74 0 1.21-.09 1.67-.28v3.81c-.56.19-1.58.37-2.79.37-3.81 0-5.58-1.77-5.58-5.3v-8.84h-2.05v-3.63h2.05v-3.26l4.93-2.05v.02Zm21.77 22.79h-4.84v-2.6c-.84 1.67-2.51 2.98-5.12 2.98-3.16 0-5.49-1.95-5.49-6.05V22.15h4.93v11.16c0 2.05.84 2.98 2.51 2.98s3.07-1.12 3.07-3.26V22.15h4.93v17.49l.01-.01Zm3.63-17.49h4.93v3.26c1.02-2.33 2.7-3.44 5.3-3.44v4.84c-3.35 0-5.3 1.02-5.3 3.91v9.02h-4.93V22.14ZM144.02 40c-5.02 0-8.47-2.98-8.47-8.84v-.37c0-5.86 3.63-9.12 8.37-9.12 4.37 0 8 2.42 8 8.28v2.14h-11.35c.19 3.16 1.58 4.37 3.63 4.37 1.86 0 2.88-1.02 3.26-2.23h4.56c-.74 3.26-3.44 5.77-8 5.77Zm-3.53-11.16h6.6c-.09-2.6-1.3-3.72-3.26-3.72-1.49.09-2.88.93-3.35 3.72h.01Z"/>
  </g>
  <defs>
    <clipPath id="a">
      <path d="M0 0h152v40H0z" fill="#fff"/>
    </clipPath>
  </defs>
</svg>