<?xml version="1.0" encoding="utf-8"?>
<svg xmlns="http://www.w3.org/2000/svg" fill="none" height="40" viewBox="0 0 127 40" width="127">
<path d="M15.76 31.04C7.21 31.04 0 24.09 0 15.52C0 6.95 7.21 0 15.76 0C20.5 0 23.89 1.84 26.42 4.28L23.41 7.24C21.59 5.52 19.13 4.2 15.76 4.2C9.52 4.2 4.63 9.25 4.63 15.49C4.63 21.73 9.53 26.78 15.76 26.78C19.82 26.78 22.13 25.15 23.6 23.69C24.81 22.48 25.62 20.73 25.93 18.34H16.34V14.11H30.04C30.18 14.87 30.28 15.78 30.28 16.76C30.28 19.94 29.4 23.88 26.61 26.67C23.87 29.54 20.39 31.06 15.76 31.06V31.04Z" fill="#455065"/>
<path d="M42.36 11.01C36.82 11.01 32.33 15.23 32.33 21.02C32.33 26.81 36.85 31.03 42.36 31.03C47.87 31.03 52.39 26.77 52.39 21.02C52.39 15.27 47.9 11.01 42.36 11.01ZM42.36 14.97C45.39 14.97 47.99 17.42 47.99 21.03C47.99 24.64 45.39 27.08 42.36 27.08C39.33 27.08 36.74 24.58 36.74 21.03C36.74 17.48 39.34 14.97 42.36 14.97Z" fill="#455065"/>
<path d="M64.84 11.01C59.32 11.01 54.81 15.23 54.81 21.02C54.81 26.81 59.34 31.03 64.84 31.03C70.34 31.03 74.89 26.77 74.89 21.02C74.89 15.27 70.39 11.01 64.84 11.01ZM64.84 14.97C67.87 14.97 70.48 17.42 70.48 21.03C70.48 24.64 67.86 27.08 64.84 27.08C61.82 27.08 59.21 24.58 59.21 21.03C59.21 17.48 61.81 14.97 64.84 14.97Z" fill="#455065"/>
<path d="M86.8 11.05C81.8 11.05 77.21 15.46 77.21 21.08C77.21 26.7 81.8 31.04 86.8 31.04C89.16 31.04 91.07 29.97 92.05 28.76H92.18V30.19C92.18 34.01 90.13 36.05 86.84 36.05C84.14 36.05 82.49 34.13 81.79 32.5L77.97 34.08C79.07 36.73 81.98 40 86.84 40C91.99 40 96.34 36.97 96.34 29.6V11.63H92.17V13.26H92.04C91.07 12.1 89.18 11.05 86.79 11.05H86.8ZM87.16 14.98C90.17 14.98 92.5 17.55 92.5 21.09C92.5 24.63 90.17 27.09 87.16 27.09C84.15 27.09 81.6 24.56 81.6 21.09C81.6 17.62 84.13 14.98 87.16 14.98Z" fill="#455065"/>
<path d="M104.83 2.02002V30.43H100.43V2.02002H104.83Z" fill="#455065"/>
<path d="M117.65 11C112.5 11 108.22 15.06 108.22 21.01C108.22 26.62 112.45 31.01 118.13 31.01C122.72 31.01 125.37 28.22 126.46 26.59L123.04 24.31C121.92 25.99 120.41 27.06 118.14 27.06C115.87 27.06 114.32 26.04 113.3 24.04L126.66 18.49L126.22 17.36C125.37 15.12 122.84 11 117.65 11ZM117.77 14.88C119.52 14.88 120.98 15.77 121.49 17.01L112.53 20.73C112.45 16.87 115.54 14.92 117.77 14.88Z" fill="#455065"/>
</svg>